<svg xmlns="http://www.w3.org/2000/svg" preserveAspectRatio="xMidYMid" viewBox="0 0 32 32"><path d="M29 13.9V31a1 1 0 1 1-2 0V13.9a4 4 0 0 1-3-3.9 4 4 0 0 1 3-3.9V1a1 1 0 1 1 2 0v5.1a4 4 0 0 1 0 7.7ZM28 8a2 2 0 1 0 0 4 2 2 0 0 0 0-4ZM17 25.9V31a1 1 0 1 1-2 0v-5.1a4 4 0 0 1-3-3.9 4 4 0 0 1 3-3.9V1a1 1 0 1 1 2 0v17.1a4 4 0 0 1 0 7.7ZM16 20a2 2 0 1 0 0 4 2 2 0 0 0 0-4Zm-11-.1V31a1 1 0 1 1-2 0V19.9A4 4 0 0 1 0 16a4 4 0 0 1 3-3.9V1a1 1 0 1 1 2 0v11.1a4 4 0 0 1 0 7.7ZM4 14a2 2 0 1 0 0 4 2 2 0 0 0 0-4Z"/></svg>