<svg xmlns="http://www.w3.org/2000/svg" xml:space="preserve" viewBox="-17.1 -17.1 1000 1000"><path fill="#fc7416" d="M-172 13.9h1302v930H-172z" vector-effect="non-scaling-stroke"/><path fill="#d93c00" d="m989.5 456.6-193.4 92L606.4 492l-203.7 70.7-278-120-296.8 152.5V944h1302V523.5z" vector-effect="non-scaling-stroke"/><path fill="#b22f0a" d="m889.3 943.9 122.5-423.2-47.4-2.7 25.1-61.4-193.4 92L501.5 944zM402.7 562.6l-574.8 381.3H305l301.4-452z" vector-effect="non-scaling-stroke"/><path fill="#b22f0a" d="M-172 595.1v299.5h118L87.4 604.4l-91.1-11.1 128.3-150.7z" vector-effect="non-scaling-stroke"/><path fill="#ff8a01" d="M1130 642v302H305l33.5-163.7s435.3-227 599-204.6c51.3 7 121 33.4 192.4 66.4z" vector-effect="non-scaling-stroke"/><path fill="#ff8902" d="M-172 788.6v155.3h1302V769.2c-627.8 105-579.5-389.8-1302 19.4z" vector-effect="non-scaling-stroke"/><path fill="#fea42c" d="M1130 642c-71.5-33-141.2-59.4-192.6-66.4-25.8-3.5-58.4-.8-95 6.2 69.4 19.5 185 60 176 111-7.1 39.6-81 107-252 73.5-133.5-26.2 203.2 54 363.5 81.8v-206z" vector-effect="non-scaling-stroke"/><path fill="#fea42c" d="m228.3 630.4-1.1.6c11.6-.4 88-2.7 258.2 85.1 190.1 98 229 190.7 452.8 227.9h191.7V769.2c-480.2 80.3-564.7-190.4-901.6-138.8z" vector-effect="non-scaling-stroke"/><path fill="#d93c00" d="M241.6 725.7c-.8-2-4.2-4-6.8-3.9-2.6.1-3.2.8-5.1-.5-1.9-1.4-5.1-.3-5.1-.3l-2.4-3s-1.1 4.3-1.1 7.3-4.8 9.8-7.1 12.1c-1.3 1.3-3.6.2-5.3-1-1.7-4.8-4-12.5-8.1-13.6-3-.8-5 1.6-6.5 4.1a3 3 0 0 1-5.1 0c-3.3-5.2-9.8-12.2-19.5-4.9-4.7 3.5-6.9 9-13 11.8-6.3 2.9-4.2 8.1-3.6 14.3.5 6.3-9.6 17.9-9.9 18.7-.3.9-.6 15.6-.6 15.6s-2.7 2.6-3 4.8c-.3 2.1 3 5.4 3 5.4s3-5.1 3-6.5c.1-1.4 1.8-12.8 1.6-14.6-.2-1.9 6.3-7.5 6.3-7.5s-1.3 8.3-.5 9.9c.8 1.6 6.6 19.6 6.6 19.6h7.4c.3-1.5-4.3-3.3-4.3-3.3l-3-8.7c-.9-3 .4-11.6.4-15.1 0-3.6.7-5 2.7-7.4 2-2.3 2.5-5.1 2.5-5.1 2.7-2.1 3.2-1.4 8.3.6a45.6 45.6 0 0 0 12.8 1.8l-6.5 14.9s-.9 4.5-1.6 7c-.9 2.7-5.6 15-5.6 15s7.2.8 7.4.5c.3-.3-.2-2-1.2-4.4-.9-2.3 5.3-14.3 5.6-15.4.3-1.1 9.9-17 9.9-17l2.3-1.4s5 19 6 21l6.2 16.7s7.3.4 7.1-.2c0-.7-3.2-3.1-4.1-3.9-1-.6-3.9-11-3.9-11s-1-4-1.4-5c-.2-.9-1.3-17.9-1.3-17.9s0-4.6 4.8-4.1c4.7.6 15.8-7 17.8-12.7 2-5.7.4-5.4 3.1-6.8 2.7-1.4 5-3.3 5-3.3s4 1 4.5 0c.8-.7 2.1-.6 1.3-2.6zm80 24c-.7-1.7-3.6-3.4-5.7-3.3-2.1 0-2.7.6-4.4-.5-1.5-1.1-4.3-.2-4.3-.2l-2-2.4s-1 3.5-1 6-4 8.4-6 10.3c-1 1-3 0-4.4-1-1.4-4-3.3-10.5-7-11.4-2.5-.7-4 1.3-5.4 3.4-1 1.7-3.3 1.7-4.4 0-2.7-4.3-8.2-10.3-16.4-4.1-4 3-5.9 7.5-11 10-5.3 2.3-3.5 6.8-3 12 .4 5.2-8.2 15-8.4 15.7-.2.7-.6 13.1-.6 13.1s-2.3 2.4-2.5 4.1c-.2 1.9 2.6 4.6 2.6 4.6s2.4-4.4 2.5-5.5c.1-1.1 1.5-10.7 1.4-12.4 0-1.6 5.4-6.3 5.4-6.3s-1.1 7-.5 8.4c.7 1.4 5.6 16.5 5.6 16.5h6.3c.2-1.3-3.6-2.9-3.6-2.9l-2.4-7.3c-.8-2.5.4-9.9.4-12.8 0-3 .5-4.2 2.3-6.2 1.7-2 2-4.4 2-4.4 2.4-1.8 2.7-1 7.1.5 4.4 1.6 10.7 1.6 10.7 1.6l-5.5 12.5s-.6 3.9-1.4 6c-.6 2.1-4.6 12.6-4.6 12.6s6 .6 6.3.4c.2-.2-.2-1.7-1-3.6-.9-2 4.4-12.1 4.6-13 .2-1 8.4-14.3 8.4-14.3l2-1.3s4.1 16 5 17.9l5.2 14s6.1.4 6-.1a15 15 0 0 0-3.5-3.2c-.9-.6-3.2-9.2-3.2-9.2l-1.1-4.2c-.2-.8-1.1-15.2-1.1-15.2s0-3.9 4-3.4 13.5-6 15.1-10.7c1.7-4.8.4-4.6 2.6-5.7a22 22 0 0 0 4.2-2.7s3.4.9 3.8 0c.5-.7 1.5-.6.9-2.3zm-184.9-31c-.8-1.6-4-3-6-2.7-2.2.3-2.6 1-4.4 0-1.7-1-4.4.2-4.4.2l-2.3-2.1s-.6 3.6-.3 6.1c.3 2.5-3 8.8-4.7 11-1 1.1-3 .4-4.6-.5-1.8-3.8-4.4-10-8-10.6-2.8-.3-4.2 1.8-5.2 4-.7 1.8-3.2 2-4.3.5-3.1-4-9.4-9.3-16.8-2.3-3.6 3.4-5 8-9.9 11s-2.6 7.2-1.5 12.4c1 5.2-6.5 16-6.6 16.6-.1.7 1 13 1 13s-2 2.6-2 4.4c0 2 3 4.3 3 4.3s2-4.5 2-5.7c0-1.2.2-10.8 0-12.4-.3-1.6 4.6-6.9 4.6-6.9s-.4 7 .5 8.4c.8 1.3 7.4 15.8 7.4 15.8l6.2-.8c.1-1.3-3.9-2.4-3.9-2.4l-3.1-7c-1.1-2.4-.8-9.7-1.1-12.7-.4-3 0-4.3 1.5-6.4a9.5 9.5 0 0 0 1.6-4.6c2-2 2.6-1.4 7-.3 4.5 1 11 .3 11 .3l-4.1 13.2s-.3 3.8-.8 6c-.4 2.2-3.2 13-3.2 13s6 0 6.3-.3c.2-.2-.4-1.6-1.4-3.5-1-1.9 3-12.6 3.2-13.5 0-1 6.7-15 6.7-15l1.7-1.5s6 15.4 7 17l6.8 13.5s6.1-.4 6-1c-.2-.5-3-2.3-4-2.8-.8-.4-4.2-8.8-4.2-8.8l-1.5-4c-.3-.8-2.8-15-2.8-15s-.3-4 3.7-4 12.6-7.3 13.8-12.3c1.2-5-.2-4.6 2-6 2-1.4 3.8-3.1 3.8-3.1s3.4.4 3.7-.5c.4-.5 1.4-.5.6-2z" vector-effect="non-scaling-stroke"/><path fill="#fea42c" d="m-148.5 775.4-23.6 13.2v155.3h851.4C348.8 781 67 753.2-148.5 775.4z" vector-effect="non-scaling-stroke"/><path fill="#d93c00" d="M1130 757.1c-181.4 87.3-621.4 178-1302 117V944h1302V757z" vector-effect="non-scaling-stroke"/><path fill="#b22f0a" d="M744.6 943.9H1130v-122a4406 4406 0 0 1-385.3 122z" vector-effect="non-scaling-stroke"/><path fill="#ffb65f" d="M361.9 892.7a4608 4608 0 0 1-534-18.6v-61.5c136.1-6.6 366.6-2.7 534 80z" vector-effect="non-scaling-stroke"/><circle r="184.5" fill="#f99048" transform="translate(745.4 236.6)" vector-effect="non-scaling-stroke"/><circle r="144.2" fill="#f9ab75" transform="translate(745.4 236.6)" vector-effect="non-scaling-stroke"/><circle r="106.3" fill="#ffe7cc" transform="translate(745.4 236.6)" vector-effect="non-scaling-stroke"/></svg>