<svg xmlns="http://www.w3.org/2000/svg" xml:space="preserve" id="svg2" version="1.1" viewBox="0 0 1200 1200"><path id="path11502" d="M1159.8 18c26.2 30.5 25.4 69.4 0 95.5L995.5 279c-30.1 26.3-68.2 25.2-94 0-25.8-29.5-26-70.5 0-95.4L1065.7 18c28.7-24.3 69.5-24 94.1 0zM339.6 749.6c28.7-24.3 69.5-23.9 94.1 0 25.2 28.7 26.4 71.7 0 95.4l-299.4 302c-30.2 26.3-68.2 25.2-94.1 0-25.7-29.6-26-70.5 0-95.4l299.4-302.1zm288.9-220a88 88 0 0 0-84.8-84.8c-48 2.7-84.2 41.7-84.8 84.8-2 31-22 51.3-50.4 51.7-31.2-2.3-50-23.8-50.3-51.7 1.7-51.9 20.3-98 54.3-132.5a192 192 0 0 1 131.2-54.3A191.3 191.3 0 0 1 674.9 397a195 195 0 0 1 54.3 132.5c-2 31-22 51.3-50.4 51.7-31.2-2.3-50-23.8-50.3-51.7zm-84.8-382.9A383.5 383.5 0 0 1 806 256c70 74.2 108 170.8 108.7 264.4-2.1 85-17.2 125.4-57 190.8-21.7 51.7-71.7 90.1-98.7 137-15.2 48.5-4 101.3-6 155-.7 60-24.1 127-65.5 159.7a272.5 272.5 0 0 1-137.2 37.1 62.4 62.4 0 0 1-59.6-59.6 55.1 55.1 0 0 1 15.9-42.4c26.7-27.2 52.9-17 85.5-25.2 11.7-3.7 28.7-8.2 33-20.5 7.6-23.2 7.3-51.5 7.4-71 2.2-49.3-7-94.7 3.3-141 7-29.9 18.8-58.1 36.4-80.9 12-15.6 25.6-29.4 35.8-43 14.7-18.2 26.6-38 38.4-56.3 12.7-19.5 22.7-38.8 34.5-57.7a254 254 0 0 0 13.2-82.1c-2.4-70-27.8-131.8-73.5-178.2-51-47.7-112.5-73.1-177-73.6-69.7 2.4-130.6 28-176.8 73.6-47.7 51.1-73 113.5-73.5 178.2-2.6 35.7-27 60.5-59.7 61-35.8-2.8-60.5-28.4-61-61a392.5 392.5 0 0 1 108.7-264.4 385 385 0 0 1 262.4-109.3z"/></svg>